<svg viewBox="0 0 40 40" fill="none" xmlns="http://www.w3.org/2000/svg" stroke="#999999">
<path d="M20 38.5C9.78273 38.5 1.5 30.2173 1.5 20C1.5 9.78273 9.78273 1.5 20 1.5C30.2173 1.5 38.5 9.78273 38.5 20C38.5 30.2173 30.2173 38.5 20 38.5Z" fill="white"/>
<path d="M22.3275 13.1042L15.2627 20.1689C15.1651 20.2666 15.0068 20.2666 14.9092 20.1689C14.8115 20.0713 14.8115 19.913 14.9092 19.8154L21.9739 12.7506C22.0716 12.653 22.2299 12.653 22.3275 12.7506C22.4251 12.8482 22.4251 13.0065 22.3275 13.1042Z"/>
<path d="M15.2751 19.8396L22.3291 26.8935C22.4267 26.9912 22.4267 27.1495 22.3291 27.2471C22.2315 27.3447 22.0732 27.3447 21.9755 27.2471L14.9216 20.1931C14.8239 20.0955 14.8239 19.9372 14.9216 19.8396C15.0192 19.7419 15.1775 19.7419 15.2751 19.8396Z"/>
</svg>
