<svg viewBox="0 0 40 40" fill="none" xmlns="http://www.w3.org/2000/svg" stroke="#999999">
<path d="M20 38.5C30.2173 38.5 38.5 30.2173 38.5 20C38.5 9.78273 30.2173 1.5 20 1.5C9.78273 1.5 1.5 9.78273 1.5 20C1.5 30.2173 9.78273 38.5 20 38.5Z" fill="white"/>
<path d="M17.6725 13.1042L24.7373 20.1689C24.8349 20.2666 24.9932 20.2666 25.0908 20.1689C25.1885 20.0713 25.1885 19.913 25.0908 19.8154L18.0261 12.7506C17.9284 12.653 17.7701 12.653 17.6725 12.7506C17.5749 12.8482 17.5749 13.0065 17.6725 13.1042Z"/>
<path d="M24.7249 19.8396L17.6709 26.8935C17.5733 26.9912 17.5733 27.1495 17.6709 27.2471C17.7685 27.3447 17.9268 27.3447 18.0245 27.2471L25.0784 20.1931C25.1761 20.0955 25.1761 19.9372 25.0784 19.8396C24.9808 19.7419 24.8225 19.7419 24.7249 19.8396Z"/>
</svg>
